<svg height="496pt" viewBox="0 0 496.44 496" width="496pt" xmlns="http://www.w3.org/2000/svg"><path d="m144 368.21875h32v88h-32zm0 0" fill="#e6e9ed"/><path d="m136 200.21875c0-5.261719-1.222656-10.445312-3.574219-15.152344l-4.089843-8.175781-2.886719-8.671875c-1.664063-4.992188-4.464844-9.527344-8.183594-13.246094-3.722656-3.71875-8.257813-6.519531-13.25-8.183594l-8.679687-2.898437-8.175782-4.085937c-4.710937-2.359376-9.894531-3.585938-15.160156-3.585938s-10.449219 1.226562-15.152344 3.578125l-8.175781 4.085937-8.679687 2.898438c-4.992188 1.664062-9.527344 4.460938-13.25 8.183594-3.71875 3.71875-6.519532 8.253906-8.183594 13.246094l-2.886719 8.671874-4.085937 8.175782c-2.363282 4.714844-3.585938 9.898437-3.585938 15.160156 0 5.265625 1.222656 10.449219 3.574219 15.152344l4.089843 8.175781 2.886719 8.671875c1.664063 4.992188 4.464844 9.527344 8.183594 13.25 3.722656 3.71875 8.257813 6.519531 13.25 8.183594l8.671875 2.886718 8.175781 4.089844c4.71875 2.367188 9.902344 3.589844 15.167969 3.589844zm0 0" fill="#b4dd7f"/><path d="m440.015625 81.027344-.015625-.808594c0-23.886719-15.289062-45.09375-37.945312-52.648438l-34.054688-11.351562v2.882812c0 17.238282-11.425781 32.382813-28 37.117188-16.574219 4.738281-28 19.882812-28 37.121094v10.878906c-13.257812 0-24 10.746094-24 24 0 7.695312 3.625 14.546875 9.257812 18.9375l14.742188 13.0625h136l15.34375-15.144531c5.417969-6.820313 8.65625-15.460938 8.65625-24.855469 0-19.34375-13.734375-35.480469-31.984375-39.191406zm0 0" fill="#fcd770"/><path d="m144 390.859375c5.230469.816406 10.542969 1.359375 16 1.359375s10.769531-.550781 16-1.359375v-22.640625h-32zm0 0" fill="#ccd1d9"/><path d="m88 200.21875h160v88c0 48.601562-39.398438 88-88 88s-88-39.398438-88-88v-88zm0 0" fill="#fcd770"/><path d="m88 200.21875c0 8.835938-7.164062 16-16 16s-16-7.164062-16-16 7.164062-16 16-16 16 7.164062 16 16zm0 0" fill="#ffc729"/><g fill="#e6e9ed"><path d="m248 488.21875h-176c0-17.671875 14.328125-32 32-32h112c17.671875 0 32 14.328125 32 32zm0 0"/><path d="m360 408.21875h48v48h-48zm0 0"/><path d="m472 488.21875h-176c0-17.671875 14.328125-32 32-32h112c17.671875 0 32 14.328125 32 32zm0 0"/></g><path d="m426.089844 137.117188c-11.203125-10.746094-26.203125-16.898438-42.089844-16.898438s-30.886719 6.152344-42.089844 16.898438c-8.804687-5.785157-19.117187-8.898438-29.910156-8.898438-8.230469 0-16.160156 1.867188-23.382812 5.296875 1.238281 5.496094 4.335937 10.289063 8.628906 13.640625l14.753906 13.0625h136l15.34375-15.144531c3.417969-4.292969 5.832031-9.375 7.25-14.847657-4.699219-1.292968-9.585938-2.007812-14.59375-2.007812-10.792969 0-21.105469 3.113281-29.910156 8.898438zm0 0" fill="#ffc729"/><path d="m280 160.21875 29.503906 226.808594c1.425782 12.082031 11.664063 21.191406 23.839844 21.191406h101.320312c12.167969 0 22.414063-9.109375 23.832032-21.191406l29.503906-226.808594-4.6875-4.6875c-7.242188-7.238281-17.066406-11.3125-27.3125-11.3125s-20.070312 4.074219-27.3125 11.3125l-4.6875 4.6875-2.6875-4.03125c-8.320312-12.472656-22.320312-19.96875-37.3125-19.96875s-28.992188 7.496094-37.3125 19.96875l-2.6875 4.03125-4.6875-4.6875c-7.242188-7.238281-17.066406-11.3125-27.3125-11.3125s-20.070312 4.074219-27.3125 11.3125zm0 0" fill="#dfb28b"/><path d="m458.496094 387.027344 1.398437-10.808594h-151.789062l1.40625 10.808594c1.417969 12.082031 11.65625 21.191406 23.832031 21.191406h101.320312c12.167969 0 22.40625-9.109375 23.832032-21.191406zm0 0" fill="#cf9e76"/><path d="m351.113281 256.21875 8.886719 120h48l16-216-2.6875-4.03125c-8.320312-12.472656-22.320312-19.96875-37.3125-19.96875s-28.992188 7.496094-37.3125 19.96875l-2.6875 4.03125 5.929688 80zm0 0" fill="#cf9e76"/><path d="m312.199219 90.957031c-.054688.800781-.199219 1.574219-.199219 2.382813v10.878906h40zm0 0" fill="#ffc729"/><path d="m440 80.21875c0-5.261719-.855469-10.359375-2.257812-15.246094l-45.742188 15.246094zm0 0" fill="#ffc729"/><path d="m360 408.21875h48v16h-48zm0 0" fill="#ccd1d9"/><path d="m224 288.21875v-32h-16v32c0 26.472656-21.527344 48-48 48v16c35.289062 0 64-28.710938 64-64zm0 0"/><path d="m208 224.21875h16v16h-16zm0 0"/><path d="m139.574219 181.484375-3.832031-7.671875-2.710938-8.136719c-2.046875-6.144531-5.542969-11.808593-10.121094-16.367187-4.566406-4.578125-10.230468-8.082032-16.375-10.128906l-8.136718-2.703126-7.664063-3.832031c-11.558594-5.792969-25.902344-5.785156-37.46875 0l-7.664063 3.832031-8.136718 2.710938c-6.144532 2.046875-11.808594 5.542969-16.367188 10.121094-4.578125 4.566406-8.082031 10.230468-10.128906 16.375l-2.710938 8.136718-3.832031 7.671876c-2.898437 5.785156-4.425781 12.265624-4.425781 18.726562 0 6.464844 1.527344 12.945312 4.425781 18.738281l3.832031 7.671875 2.710938 8.136719c2.046875 6.140625 5.542969 11.804687 10.121094 16.367187 4.574218 4.574219 10.238281 8.070313 16.367187 10.121094l8.136719 2.710938 7.671875 3.832031c3.390625 1.695313 7.023437 2.855469 10.734375 3.582031v16.839844c0 44.632812 30.664062 82.144531 72 92.839844v67.160156h-32c-22.054688 0-40 17.945312-40 40v8h192v-8c0-22.054688-17.945312-40-40-40h-32v-67.160156c41.335938-10.695313 72-48.207032 72-92.839844v-96h-112.839844c-.726562-3.710938-1.886718-7.34375-3.585937-10.734375zm-18.832031-2.074219 4.523437 9.226563c.566406 1.136719.902344 2.375 1.292969 3.582031h-32.03125c-.773438-2.183594-1.832032-4.222656-3.175782-6.0625l20.152344-25.609375c.03125.03125.070313.050781.097656.082031 2.824219 2.824219 4.984376 6.320313 6.246094 10.117188zm-48.742188 28.808594c-4.40625 0-8-3.589844-8-8 0-4.40625 3.59375-8 8-8s8 3.59375 8 8c0 4.410156-3.59375 8-8 8zm11.574219-61.261719 8.179687 4.085938 5.414063 1.855469-19.054688 24.21875c-1.960937-.527344-3.984375-.898438-6.113281-.898438-.847656 0-1.65625.167969-2.480469.25l-11.359375-28.410156 2.273438-1.109375c7.132812-3.570313 16-3.570313 23.140625.007812zm-60.75 33.503907 3.328125-9.722657c1.261718-3.796875 3.421875-7.292969 6.253906-10.125 2.824219-2.824219 6.320312-4.984375 10.121094-6.25l.808594-.269531 11.679687 29.191406c-2.054687 2.054688-3.703125 4.503906-4.902344 7.191406l-30.128906-4.34375zm.433593 40.566406-4.523437-9.222656c-1.558594-3.121094-2.34375-6.570313-2.550781-10.039063l32.753906 4.71875c.773438 2.847656 2.015625 5.480469 3.710938 7.808594l-20.152344 25.605469c-.03125-.03125-.070313-.046876-.097656-.078126-2.824219-2.824218-4.984376-6.320312-6.246094-10.121093zm37.167969 32.457031-8.1875-4.089844-5.414062-1.847656 17.175781-21.824219v29.058594c-1.207031-.394531-2.441406-.730469-3.574219-1.296875zm178.207031 226.734375h-157.265624c3.304687-9.3125 12.199218-16 22.632812-16h112c10.433594 0 19.328125 6.6875 22.632812 16zm-70.632812-32h-16v-64.40625c2.648438.222656 5.296875.40625 8 .40625s5.351562-.183594 8-.40625zm72-160c0 44.113281-35.886719 80-80 80s-80-35.886719-80-80v-65.472656c6.777344-2.414063 12.113281-7.75 14.527344-14.527344h145.472656zm0 0"/><path d="m440 448.21875h-24v-32h18.65625c16.222656 0 29.886719-12.152344 31.769531-28.167969l30.015625-230.703125-7.472656-7.472656c-4-4-8.625-7.136719-13.625-9.421875 2.945312-6.320313 4.65625-13.199219 4.65625-20.234375 0-21.007812-13.59375-38.863281-32.425781-45.351562-2.125-25.109376-18.742188-46.800782-42.988281-54.878907l-44.585938-14.871093v13.984374c0 13.589844-9.128906 25.695313-22.199219 29.429688-13.335937 3.808594-23.855469 13.402344-29.425781 25.503906l-10.078125-54.199218c-2.113281-11.367188-12.03125-19.617188-23.59375-19.617188h-42.703125v16h42.703125c3.847656 0 7.160156 2.753906 7.863281 6.539062l14.394532 77.382813c-10.039063 5.40625-16.960938 15.894531-16.960938 28.078125 0 6.058594 1.847656 11.738281 4.929688 16.714844-2.074219 1.488281-4.058594 3.101562-5.898438 4.941406l-7.472656 7.472656 30 230.609375c1.898437 16.109375 15.5625 28.261719 31.785156 28.261719h18.65625v32h-24c-22.054688 0-40 17.945312-40 40v8h192v-8c0-22.054688-17.945312-40-40-40zm39.558594-285.125-26.6875 205.125h-36.253906l15.144531-204.4375 2.582031-2.585938c11.566406-11.566406 31.746094-11.566406 43.3125 0zm-183.558594-34.875c0-8.824219 7.175781-16 16-16h40v-16h-32v-2.878906c0-13.59375 9.128906-25.695313 22.199219-29.433594 17.296875-4.941406 30.058593-19.503906 33.105469-36.820312l24.214843 8.070312c16.847657 5.625 28.871094 19.992188 31.777344 37.0625h-31.296875v16h32c17.648438 0 32 14.351562 32 32 0 5.792969-1.566406 11.289062-4.457031 16.175781-1.175781-.085937-2.351563-.175781-3.542969-.175781-11.488281 0-22.335938 4.128906-30.863281 11.671875-9.976563-12.398437-25.03125-19.671875-41.136719-19.671875s-31.160156 7.273438-41.136719 19.671875c-8.527343-7.542969-19.375-11.671875-30.863281-11.671875-4.335938 0-8.574219.625-12.640625 1.761719-2.144531-2.769531-3.359375-6.160157-3.359375-9.761719zm-7.558594 34.875 1.902344-1.90625c11.566406-11.566406 31.746094-11.566406 43.3125 0l2.582031 2.585938 5.707031 77.03125 15.949219-1.175782-5.71875-77.257812 1.167969-1.742188c6.847656-10.273437 18.3125-16.410156 30.65625-16.410156s23.808594 6.136719 30.65625 16.410156l1.167969 1.742188-15.25 205.847656h-33.140625l-8.34375-112.589844-15.953125 1.175782 8.246093 111.414062h-36.253906zm29 222.902344-.234375-1.777344h133.585938l-.242188 1.875c-.949219 8.054688-7.78125 14.125-15.894531 14.125h-101.3125c-8.113281 0-14.945312-6.070312-15.902344-14.222656zm50.558594 30.222656h32v32h-32zm-62.632812 64c3.304687-9.3125 12.199218-16 22.632812-16h112c10.433594 0 19.328125 6.6875 22.632812 16zm0 0"/></svg>