<svg height="512pt" viewBox="-32 0 512 512.00045" width="512pt" xmlns="http://www.w3.org/2000/svg"><path d="m209.03125 217.777344c-75.679688-29.894532-161.265625 7.222656-191.164062 82.90625-29.894532 75.679687 7.222656 161.265625 82.90625 191.160156 75.679687 29.894531 161.265624-7.222656 191.160156-82.902344 29.894531-75.683594-7.222656-161.269531-82.902344-191.164062zm0 0" fill="#ffc5b2"/><path d="m209.019531 217.792969c-29.058593-11.476563-59.574219-13.066407-87.835937-6.398438 6.84375 1.617188 13.660156 3.738281 20.394531 6.398438 75.679687 29.898437 112.792969 115.480469 82.898437 191.160156-18.417968 46.621094-57.972656 78.59375-103.324218 89.292969 70.078125 16.574218 143.527344-20.351563 170.761718-89.292969 29.898438-75.679687-7.21875-161.261719-82.894531-191.160156zm0 0" fill="#ffa6a0"/><g fill="#ff8500"><path d="m180.386719 259.929688c2.40625-6.085938-.929688-11.820313-7.40625-12.746094l-39.976563.480468c-6.425781 1.238282-9.550781 7.164063-6.949218 13.164063l23.511718 54.21875c2.605469 6.003906 6.703125 5.9375 9.105469-.148437zm0 0"/><path d="m115.117188 360.140625c6-2.601563 5.933593-6.699219-.152344-9.105469l-54.96875-21.714844c-6.085938-2.402343-11.820313.929688-12.746094 7.40625l.480469 39.976563c1.238281 6.425781 7.164062 9.550781 13.167969 6.949219zm0 0"/><path d="m121.242188 328.460938c6.085937 2.40625 8.9375-.539063 6.332031-6.542969l-23.511719-54.21875c-2.601562-6-9.0625-7.769531-14.359375-3.925781l-27.671875 28.855468c-3.753906 5.363282-1.84375 11.714844 4.242188 14.117188zm0 0"/><path d="m217.078125 261.964844c-5.359375-3.753906-11.710937-1.84375-14.117187 4.242187l-21.714844 54.96875c-2.402344 6.085938.542968 8.933594 6.542968 6.332031l54.21875-23.511718c6.003907-2.605469 7.769532-9.066406 3.925782-14.363282zm0 0"/><path d="m160.207031 394.59375c-2.601562-6.003906-6.699219-5.9375-9.101562.148438l-21.714844 54.96875c-2.40625 6.085937.925781 11.820312 7.40625 12.746093l39.976563-.480469c6.421874-1.238281 9.550781-7.160156 6.945312-13.164062zm0 0"/><path d="m128.53125 388.464844c2.402344-6.085938-.542969-8.933594-6.542969-6.332032l-54.21875 23.511719c-6.003906 2.605469-7.769531 9.066407-3.925781 14.359375l28.855469 27.671875c5.359375 3.753907 11.710937 1.84375 14.117187-4.242187zm0 0"/><path d="m194.660156 349.5c-6.003906 2.601562-5.933594 6.699219.148438 9.105469l54.972656 21.714843c6.085938 2.402344 11.820312-.929687 12.746094-7.40625l-.480469-39.976562c-1.238281-6.425781-7.164063-9.550781-13.167969-6.949219zm0 0"/><path d="m188.53125 381.179688c-6.082031-2.402344-8.933594.539062-6.328125 6.542968l23.511719 54.21875c2.601562 6.003906 9.0625 7.769532 14.359375 3.925782l27.671875-28.855469c3.753906-5.359375 1.84375-11.714844-4.242188-14.117188zm0 0"/></g><path d="m203.835938 264.46875c10.636718 13.726562 18.753906 29.210938 24.003906 45.671875l14.171875-6.144531c6-2.605469 7.765625-9.066406 3.925781-14.359375l-28.859375-27.671875c-4.804687-3.367188-10.402344-2.167969-13.242187 2.503906zm0 0" fill="#ff6d00"/><path d="m248.878906 325.988281-15.738281 6.824219c2.046875 13.445312 2.238281 27.269531.421875 41.101562l16.21875 6.40625c6.082031 2.402344 11.820312-.929687 12.742188-7.40625l-.476563-39.976562c-1.238281-6.425781-7.164063-9.550781-13.167969-6.949219zm0 0" fill="#ff6d00"/><path d="m220.074219 445.867188 27.671875-28.855469c3.753906-5.359375 1.84375-11.714844-4.242188-14.117188l-14.894531-5.886719c-1.203125 4.003907-2.570313 7.988282-4.132813 11.941407-4.820312 12.199219-11.09375 23.382812-18.53125 33.453125 2.730469 5.621094 8.976563 7.207031 14.128907 3.464844zm0 0" fill="#ff6d00"/><path d="m420.796875 145.730469h-.855469v-54.246094h-141.28125v59.730469l-18.945312 106.289062v217.140625c0 16.503907 13.378906 29.886719 29.882812 29.886719h121.238282c16.503906 0 29.882812-13.382812 29.882812-29.886719v-217.140625zm0 0" fill="#90e7fc"/><path d="m420.796875 145.730469h-.855469v-54.246094h-50.914062l.101562 54.246094 19.925782 111.773437v194.328125c0 16.507813-13.382813 29.886719-29.886719 29.886719h-98.605469c3.179688 13.089844 14.96875 22.8125 29.035156 22.8125h121.238282c16.503906 0 29.882812-13.378906 29.882812-29.886719v-217.140625zm0 0" fill="#58d5ea"/><path d="m424.265625 102.773438h-148.097656c-9.535157 0-17.265625-7.730469-17.265625-17.265626 0-9.535156 7.730468-17.265624 17.265625-17.265624h148.097656c9.535156 0 17.265625 7.730468 17.265625 17.265624 0 9.535157-7.730469 17.265626-17.265625 17.265626zm0 0" fill="#90e7fc"/><path d="m424.265625 157.230469h-148.097656c-9.535157 0-17.265625-7.730469-17.265625-17.265625s7.730468-17.265625 17.265625-17.265625h148.097656c9.535156 0 17.265625 7.730469 17.265625 17.265625s-7.730469 17.265625-17.265625 17.265625zm0 0" fill="#90e7fc"/><path d="m424.265625 68.242188h-30.707031c6.40625 2.519531 10.949218 8.753906 10.949218 16.054687v2.417969c0 7.304687-4.539062 13.535156-10.949218 16.058594h30.707031c9.535156 0 17.265625-7.730469 17.265625-17.265626 0-9.535156-7.730469-17.265624-17.265625-17.265624zm0 0" fill="#58d5ea"/><path d="m424.265625 122.699219h-30.707031c6.40625 2.519531 10.949218 8.753906 10.949218 16.054687v2.417969c0 7.304687-4.539062 13.535156-10.949218 16.058594h30.707031c9.535156 0 17.265625-7.730469 17.265625-17.265625s-7.730469-17.265625-17.265625-17.265625zm0 0" fill="#58d5ea"/><path d="m259.714844 257.503906v217.140625c0 16.503907 13.378906 29.886719 29.882812 29.886719h121.238282c16.503906 0 29.882812-13.382812 29.882812-29.886719v-217.140625l-8.152344-45.738281h-164.699218zm0 0" fill="#ff8500"/><path d="m289.597656 504.53125h121.238282c16.503906 0 29.882812-13.382812 29.882812-29.886719v-217.140625l-8.152344-45.738281h-51.664062l8.152344 45.738281v194.328125c0 16.503907-13.378907 29.886719-29.886719 29.886719h-98.605469c3.179688 13.089844 14.96875 22.8125 29.035156 22.8125zm0 0" fill="#ff6d00"/><path d="m369.132812 305.480469c-3.234374 0-6.214843-2.117188-7.167968-5.378907l-84.902344-290.53125c-1.15625-3.960937 1.117188-8.109374 5.078125-9.269531 3.960937-1.15625 8.109375 1.117188 9.265625 5.078125l84.898438 290.53125c1.160156 3.960938-1.113282 8.109375-5.074219 9.265625-.699219.207031-1.40625.304688-2.097657.304688zm0 0" fill="#ff8500"/><path d="m351.863281 211.765625h-15.5625l25.664063 88.335937c.953125 3.261719 3.933594 5.378907 7.167968 5.378907.691407 0 1.398438-.097657 2.097657-.300781 3.960937-1.160157 6.234375-5.308594 5.074219-9.269532zm0 0" fill="#f63511"/><path d="m142.714844 318.019531c3.480468 8.027344 9.058594 8.957031 11.453125 8.957031h.148437c2.308594-.035156 8.023438-1.023437 11.304688-9.332031l21.714844-54.972656c1.992187-5.039063 1.679687-10.4375-.859376-14.804687-2.539062-4.371094-7.074218-7.316407-12.441406-8.082032-.378906-.050781-.765625-.074218-1.144531-.074218l-39.976563.480468c-.445312.007813-.886718.050782-1.324218.136719-5.296875 1.019531-9.691406 4.171875-12.050782 8.644531-2.363281 4.472656-2.484374 9.878906-.335937 14.828125zm-9.960938-62.074219c.183594-.347656.601563-.636718 1.175782-.820312l38.425781-.460938c.582031.144532 1.019531.398438 1.199219.710938.222656.382812.179687 1.058594-.113282 1.808594l-19.460937 49.257812-21.070313-48.585937c-.332031-.769531-.390625-1.464844-.15625-1.910157zm0 0"/><path d="m63.867188 390.507812 54.222656-23.511718c8.195312-3.554688 8.992187-9.300782 8.953125-11.605469-.035157-2.304687-1.023438-8.019531-9.332031-11.304687l-54.972657-21.714844c-5.039062-1.988282-10.433593-1.675782-14.804687.863281-4.367188 2.539063-7.3125 7.070313-8.078125 12.4375-.054688.378906-.078125.761719-.074219 1.144531l.480469 39.976563c.003906.445312.050781.886719.132812 1.324219 1.023438 5.300781 4.171875 9.691406 8.648438 12.054687 2.347656 1.238281 4.957031 1.859375 7.617187 1.859375 2.40625.003906 4.859375-.503906 7.207032-1.523438zm-8.675782-14.726562-.460937-38.425781c.144531-.585938.402343-1.019531.710937-1.199219.382813-.226562 1.058594-.183594 1.808594.113281l49.261719 19.460938-48.585938 21.066406c-.773437.335937-1.46875.394531-1.910156.160156-.351563-.183593-.640625-.601562-.824219-1.175781zm0 0"/><path d="m63.527344 313.695312 54.972656 21.714844c2.484375.980469 4.636719 1.355469 6.480469 1.355469 4.324219 0 6.933593-2.066406 8.058593-3.226563 1.601563-1.65625 4.945313-6.394531 1.390626-14.59375l-23.511719-54.21875c-2.148438-4.949218-6.175781-8.554687-11.054688-9.890624-4.882812-1.332032-10.183593-.28125-14.550781 2.890624-.359375.261719-.695312.554688-1 .875l-27.671875 28.855469c-.265625.277344-.511719.574219-.730469.886719-3.109375 4.441406-4.054687 9.765625-2.601562 14.605469 1.453125 4.835937 5.179687 8.753906 10.21875 10.746093zm4.394531-16.410156 26.597656-27.738281c.527344-.292969 1.019531-.402344 1.402344-.296875.484375.132812.953125.652344 1.289063 1.421875l21.066406 48.585937-49.257813-19.460937c-.75-.292969-1.269531-.722656-1.398437-1.148437-.105469-.347657.007812-.839844.300781-1.363282zm0 0"/><path d="m196.015625 263.460938-21.714844 54.96875c-3.285156 8.3125.214844 12.9375 1.871094 14.539062 1.121094 1.085938 3.65625 2.972656 7.71875 2.96875 1.9375 0 4.226563-.429688 6.875-1.574219l54.21875-23.515625c3.785156-1.640625 5.523437-6.039062 3.878906-9.824218-1.640625-3.785157-6.039062-5.523438-9.824219-3.882813l-48.585937 21.070313 19.457031-49.261719c.296875-.746094.726563-1.269531 1.152344-1.398438.34375-.105469.835938.007813 1.363281.300781l13.0625 12.527344c2.976563 2.855469 7.707031 2.753906 10.5625-.222656s2.757813-7.707031-.222656-10.5625l-13.578125-13.023438c-.277344-.265624-.574219-.507812-.886719-.726562-4.441406-3.109375-9.765625-4.058594-14.601562-2.601562-4.839844 1.453124-8.757813 5.179687-10.746094 10.21875zm0 0"/><path d="m155.460938 382.664062c-2.308594.039063-8.023438 1.023438-11.304688 9.335938l-21.714844 54.96875c-1.992187 5.039062-1.675781 10.4375.863282 14.808594 2.539062 4.367187 7.070312 7.3125 12.4375 8.078125.347656.050781.699218.074219 1.054687.074219h.089844l39.976562-.480469c.445313-.003907.886719-.050781 1.324219-.132813 5.300781-1.023437 9.695312-4.175781 12.054688-8.648437 2.359374-4.472657 2.480468-9.878907.332031-14.828125l-23.511719-54.21875c-3.554688-8.199219-9.265625-8.992188-11.601562-8.957032zm21.5625 71.03125c-.183594.347657-.601563.636719-1.175782.820313l-38.425781.460937c-.582031-.144531-1.019531-.398437-1.199219-.710937-.222656-.382813-.179687-1.058594.117188-1.808594l19.457031-49.257812 21.070313 48.585937c.332031.769532.390624 1.464844.15625 1.910156zm0 0"/><path d="m133.605469 376.671875c-1.65625-1.605469-6.394531-4.949219-14.589844-1.394531l-54.222656 23.515625c-4.949219 2.144531-8.554688 6.175781-9.890625 11.054687-1.332032 4.875-.277344 10.179688 2.894531 14.546875.257813.359375.550781.695313.875 1.003907l28.855469 27.671874c.273437.265626.570312.507813.886718.726563 3.074219 2.152344 6.570313 3.269531 10.039063 3.269531 1.539063 0 3.074219-.21875 4.5625-.664062 4.835937-1.457032 8.753906-5.183594 10.746094-10.222656l21.714843-54.972657c3.285157-8.308593-.214843-12.933593-1.871093-14.535156zm-33.742188 64.019531c-.292969.75-.722656 1.269532-1.148437 1.398438-.34375.105468-.835938-.007813-1.363282-.300782l-27.738281-26.597656c-.292969-.527344-.398437-1.023437-.292969-1.40625.128907-.480468.648438-.949218 1.417969-1.285156l48.585938-21.070312zm0 0"/><path d="m449.003906 139.964844c0-12.574219-9.429687-22.976563-21.589844-24.53125v-5.394532c12.160157-1.554687 21.589844-11.957031 21.589844-24.53125 0-13.640624-11.097656-24.738281-24.738281-24.738281h-116.671875l-16.1875-55.390625c-1.15625-3.960937-5.304688-6.234375-9.265625-5.074218-3.960937 1.15625-6.234375 5.304687-5.078125 9.265624l14.960938 51.199219h-15.855469c-13.640625 0-24.738281 11.097657-24.738281 24.738281 0 11.933594 8.496093 21.921876 19.757812 24.234376v5.988281c-11.261719 2.308593-19.757812 12.296875-19.757812 24.234375 0 11.097656 7.347656 20.511718 17.433593 23.636718l-13.140625 73.71875c-13.007812-11.179687-27.738281-20.066406-43.960937-26.476562-79.386719-31.359375-169.488281 7.714844-200.851563 87.101562-15.191406 38.457032-14.5 80.527344 1.953125 118.464844 16.449219 37.933594 46.691407 67.195313 85.148438 82.386719 18.511719 7.3125 37.8125 10.863281 56.949219 10.863281 35.015624 0 69.4375-11.914062 97.292968-34.460937.300782 20.34375 16.929688 36.800781 37.34375 36.800781h121.234375c20.597657 0 37.355469-16.757812 37.355469-37.355469v-217.140625c0-.4375-.039062-.878906-.113281-1.308594l-16.503907-92.59375c10.085938-3.125 17.433594-12.539062 17.433594-23.636718zm-196.761718 233.292968-48.976563-19.34375 48.585937-21.070312c.125-.054688.257813-.101562.390626-.148438zm.117187-117.0625c-.078125.429688-.117187.871094-.117187 1.308594v60.128906c-2.105469.105469-4.246094.59375-6.335938 1.5l-54.21875 23.511719c-8.195312 3.558594-8.992188 9.300781-8.957031 11.605469.039062 2.304688 1.023437 8.019531 9.335937 11.304688l54.96875 21.714843c1.714844.675781 3.46875 1.078125 5.207032 1.226563v11.324218c-1.664063-1.628906-3.683594-2.960937-5.992188-3.875l-54.972656-21.714843c-8.308594-3.28125-12.933594.214843-14.539063 1.871093-1.601562 1.65625-4.945312 6.394532-1.390625 14.59375l23.511719 54.21875c2.148437 4.953126 6.175781 8.554688 11.054687 9.890626 1.386719.375 2.804688.5625 4.226563.5625 3.585937 0 7.195313-1.183594 10.324219-3.453126.359375-.261718.695312-.554687 1-.875l26.777344-27.921874v32.136718c-39.449219 38.21875-97.476563 49.898438-148.738282 29.644532-34.746094-13.722657-62.066406-40.160157-76.929687-74.433594-14.863281-34.273438-15.488281-72.285156-1.765625-107.03125 28.335937-71.722656 109.738281-107.023438 181.464844-78.691406 17.488281 6.910156 33.0625 16.984374 46.347656 29.980468zm-10.503906 156.164063-26.597657 27.734375c-.527343.292969-1.023437.402344-1.402343.296875-.484375-.132813-.953125-.648437-1.289063-1.421875l-21.066406-48.585938 49.257812 19.460938c.75.296875 1.273438.726562 1.398438 1.152344.105469.34375-.007812.835937-.300781 1.363281zm182.410156-336.648437c5.402344 0 9.796875 4.394531 9.796875 9.796874 0 5.402344-4.394531 9.792969-9.796875 9.792969h-106.582031l-5.722656-19.589843zm-116.328125 39.515624h-21.804688v-4.980468h20.351563zm-41.5625-29.71875c0-5.402343 4.394531-9.796874 9.792969-9.796874h20.222656l5.726563 19.589843h-25.949219c-5.398438 0-9.792969-4.390625-9.792969-9.792969zm0 54.457032c0-5.402344 4.394531-9.796875 9.792969-9.796875h2.484375.007812.011719 33.632813l5.726562 19.59375h-41.863281c-5.398438 0-9.792969-4.394531-9.792969-9.796875zm166.875 118.199218v216.480469c0 12.359375-10.054688 22.414063-22.414062 22.414063h-121.238282c-12.359375 0-22.414062-10.054688-22.414062-22.414063v-216.480469l16.660156-93.460937h38.554688l11.570312 39.59375h-29.71875c-4.125 0-7.46875 3.34375-7.46875 7.46875s3.34375 7.472656 7.46875 7.472656h34.082031l23.632813 80.863281c.953125 3.261719 3.933594 5.378907 7.167968 5.378907.691407 0 1.398438-.097657 2.097657-.304688 3.960937-1.15625 6.234375-5.304687 5.074219-9.265625l-22.402344-76.671875h72.410156zm-95.285156-93.460937h78.625l7.058594 39.59375h-74.113282zm86.300781-14.941406h-90.667969l-8.546875-29.25c-.003906-.019531-.011719-.035157-.015625-.050781l-2.984375-10.214844h90.421875v4.980468h-60.570312c-4.125 0-7.472656 3.347657-7.472656 7.472657s3.347656 7.46875 7.472656 7.46875h68.03125.011718.007813 4.3125c5.402344 0 9.796875 4.394531 9.796875 9.796875s-4.394531 9.796875-9.796875 9.796875zm0 0"/></svg>